<svg width="16" height="20" viewBox="0 0 16 20" fill="none" xmlns="http://www.w3.org/2000/svg">
<path d="M14.6317 7.046C14.0247 7.41744 13.5219 7.93683 13.1704 8.55554C12.8189 9.17425 12.6301 9.87204 12.6217 10.5836C12.6241 11.3844 12.8614 12.1669 13.3041 12.8342C13.7468 13.5015 14.3756 14.0243 15.1125 14.3378C14.822 15.2752 14.392 16.1635 13.837 16.9729C13.0429 18.116 12.2126 19.2591 10.9492 19.2591C9.6858 19.2591 9.3609 18.5251 7.9049 18.5251C6.4849 18.5251 5.9797 19.2832 4.8249 19.2832C3.6701 19.2832 2.8638 18.2243 1.9373 16.9248C0.713333 15.1043 0.0406601 12.9694 0 10.7761C0 7.1661 2.3464 5.2531 4.6566 5.2531C5.884 5.2531 6.9066 6.0593 7.6766 6.0593C8.4106 6.0593 9.5537 5.205 10.9495 5.205C11.6672 5.18642 12.3784 5.34462 13.0205 5.66566C13.6626 5.98671 14.2159 6.46074 14.6317 7.046ZM7.7731 5.0004C7.68831 5.00014 7.60372 4.99211 7.5204 4.9764C7.49687 4.86559 7.48477 4.75267 7.4843 4.6394C7.52446 3.70814 7.88587 2.81952 8.5071 2.1246C9.20435 1.3237 10.1816 0.81999 11.2385 0.716797C11.2636 0.839515 11.2757 0.96454 11.2746 1.0898C11.2516 2.03968 10.9033 2.9529 10.2879 3.6768C9.98032 4.05635 9.59878 4.36941 9.16647 4.59694C8.73416 4.82448 8.2601 4.96174 7.7731 5.0004Z" fill="black"/>
</svg>
